Coordinates
version=1
nRows=12
nColumns=24
inDegrees=yes

Units are S.I. units (second, meters, Newtons, ...)
Angles are in degrees.

endheader
time	pelvis_tilt	pelvis_list	pelvis_rotation	pelvis_tx	pelvis_ty	pelvis_tz	hip_flexion_r	hip_adduction_r	hip_rotation_r	knee_angle_r	ankle_angle_r	subtalar_angle_r	mtp_angle_r	hip_flexion_l	hip_adduction_l	hip_rotation_l	knee_angle_l	ankle_angle_l	subtalar_angle_l	mtp_angle_l	lumbar_extension	lumbar_bending	lumbar_rotation
      1.00800000	     -0.73268652	     -3.78234667	     -0.67274647	     -0.07543670	      1.05453417	      0.33594908	    -15.03997780	      6.93930301	     -0.09643103	     -6.26972725	     13.96925036	     -0.93446773	      4.83343794	     24.13415505	     -3.64420376	     -1.17956180	     -1.28055121	      5.35568043	      7.74960344	      6.64692462	    -21.51905336	      7.39806628	      4.77499299
      1.01216667	     -0.64453360	     -3.76096064	     -0.75820286	     -0.06943591	      1.05382062	      0.33592143	    -15.22283713	      6.85414127	     -0.21456529	     -6.82526813	     14.22980242	     -0.50151115	      4.94547985	     24.13163686	     -3.56147570	     -1.07250554	     -1.75687048	      5.26520252	      7.56120838	      6.66918629	    -21.57382217	      7.24153027	      4.78072325
      1.01633333	     -0.61702635	     -3.74517141	     -0.84550092	     -0.06337925	      1.05303549	      0.33593667	    -15.35480145	      6.78442323	     -0.18376543	     -7.35511586	     14.36862241	     -0.35164494	      5.03393990	     24.20594175	     -3.49037627	     -0.95411931	     -2.31947025	      5.17087117	      7.39759415	      6.69270466	    -21.56344531	      7.08573512	      4.75100186
      1.02050000	     -0.53911061	     -3.70758378	     -0.93643610	     -0.05728982	      1.05240155	      0.33595436	    -15.52192188	      6.68423589	     -0.21519291	     -7.92115082	     14.47253732	     -0.15797770	      5.13765424	     24.21863070	     -3.40127020	     -0.87186851	     -2.92638095	      5.01260133	      7.20214042	      6.72221803	    -21.59469791	      6.91602816	      4.72551546
      1.02466667	     -0.48824342	     -3.66866331	     -1.01637174	     -0.05116558	      1.05174743	      0.33595807	    -15.64794204	      6.58252103	     -0.26271739	     -8.51254251	     14.56948547	      0.12485560	      5.29167129	     24.26007035	     -3.30768192	     -0.72587053	     -3.57600660	      4.79189537	      6.97388440	      6.76873375	    -21.61018444	      6.72835516	      4.69537509
      1.02883333	     -0.46026015	     -3.63476546	     -1.10073728	     -0.04499800	      1.05110085	      0.33596342	    -15.73354545	      6.48388834	     -0.30879663	     -9.13747060	     14.62190229	      0.36074549	      5.47775379	     24.32933244	     -3.22344881	     -0.58231205	     -4.27764134	      4.53767375	      6.71977083	      6.82633606	    -21.57802239	      6.55254821	      4.66084934
      1.03300000	     -0.41240777	     -3.58654733	     -1.18209766	     -0.03879807	      1.05053359	      0.33596562	    -15.82980502	      6.36635866	     -0.36733472	     -9.78263252	     14.63943280	      0.62140711	      5.71706602	     24.37177130	     -3.12649763	     -0.43443362	     -5.00493292	      4.23094464	      6.43959038	      6.89868256	    -21.56903659	      6.35635937	      4.61476730
      1.03716667	     -0.37925129	     -3.54397827	     -1.26806438	     -0.03257188	      1.04999381	      0.33597721	    -15.88837096	      6.25179027	     -0.43202645	    -10.47186356	     14.62181396	      0.86990650	      5.99852012	     24.43127025	     -3.04050398	     -0.27971097	     -5.76905657	      3.90257114	      6.14581077	      6.97747132	    -21.53243490	      6.16575161	      4.56888180
      1.04133333	     -0.33635336	     -3.49247466	     -1.35016057	     -0.02631516	      1.04951660	      0.33596988	    -15.94336596	      6.12390828	     -0.50474320	    -11.18683264	     14.56259945	      1.13621420	      6.32636224	     24.47977982	     -2.94624291	     -0.12709225	     -6.55921096	      3.54242204	      5.84531506	      7.06031452	    -21.51274967	      5.96158050	      4.51434310
      1.04550000	     -0.29345137	     -3.45506602	     -1.42328594	     -0.02004811	      1.04909617	      0.33594830	    -15.99404500	      6.01417359	     -0.53540145	    -11.89315093	     14.32353467	      1.20934837	     10.07492330	     24.52895886	     -2.86415513	      0.07811820	     -7.36973004	      3.14217983	      5.43035288	      7.95111761	    -21.48078982	      5.78595808	      4.45034488
      1.04966667	     -0.24851559	     -3.39458626	     -1.51416199	     -0.01373876	      1.04872449	      0.33594231	    -16.00203247	      5.86355295	     -0.65038796	    -12.70535014	     14.22152719	      1.54060683	     10.13894247	     24.58970580	     -2.77668246	      0.13437849	     -8.23764299	      2.78853220	      5.25625060	      7.94520348	    -21.45368274	      5.56084706	      4.40551480
      1.05383333	     -0.22953909	     -3.34535688	     -1.59785425	     -0.00741338	      1.04836958	      0.33590725	    -15.96181483	      5.72461051	     -0.75656241	    -13.55170988	     14.04690554	      1.83412022	     10.24832152	     24.67452810	     -2.69707773	      0.26285157	     -9.11272555	      2.42356356	      4.96785000	      7.93688655	    -21.39318838	      5.36054715	      4.34513762
